P1
# Made with https://github.com/r4v10l1/rule110
50 50
11000000000000000000000000000000000000000000000000
11100000000000000000000000000000000000000000000000
10110000000000000000000000000000000000000000000000
11111000000000000000000000000000000000000000000000
10001100000000000000000000000000000000000000000000
11001110000000000000000000000000000000000000000000
11101011000000000000000000000000000000000000000000
10111111100000000000000000000000000000000000000000
11100000110000000000000000000000000000000000000000
10110000111000000000000000000000000000000000000000
11111000101100000000000000000000000000000000000000
10001100111110000000000000000000000000000000000000
11001110100011000000000000000000000000000000000000
11101011110011100000000000000000000000000000000000
10111110011010110000000000000000000000000000000000
11100011011111111000000000000000000000000000000000
10110011110000001100000000000000000000000000000000
11111010011000001110000000000000000000000000000000
10001111011100001011000000000000000000000000000000
11001001110110001111100000000000000000000000000000
11101101011111001000110000000000000000000000000000
10111111110001101100111000000000000000000000000000
11100000011001111110101100000000000000000000000000
10110000011101000011111110000000000000000000000000
11111000010111100010000011000000000000000000000000
10001100011100110011000011100000000000000000000000
11001110010110111011100010110000000000000000000000
11101011011111101110110011111000000000000000000000
10111111110000111011111010001100000000000000000000
11100000011000101110001111001110000000000000000000
10110000011100111011001001101011000000000000000000
11111000010110101111101101111111100000000000000000
10001100011111111000111111000000110000000000000000
11001110010000001100100001100000111000000000000000
11101011011000001110110001110000101100000000000000
10111111111100001011111001011000111110000000000000
11100000000110001110001101111100100011000000000000
10110000000111001011001111000110110011100000000000
11111000000101101111101001100111111010110000000000
10001100000111111000111101110100001111111000000000
11001110000100001100100111011110001000001100000000
11101011000110001110110101110011001100001110000000
10111111100111001011111111011011101110001011000000
11100000110101101110000001111110111011001111100000
10110000111111111011000001000011101111101000110000
11111000100000001111100001100010111000111100111000
10001100110000001000110001110011101100100110101100
11001110111000001100111001011010111110110111111110
11101011101100001110101101111111100011111100000010
10111110111110001011111111000000110010000110000010
